<svg aria-hidden="true" style="position: absolute; width: 0; height: 0; overflow: hidden;" version="1.1" xmlns="http://www.w3.org/2000/svg" xmlns:xlink="http://www.w3.org/1999/xlink">
<defs>
<symbol id="icon-girl1" viewBox="0 0 32 32">
<path fill="#c79a83" style="fill: var(--color1, #c79a83)" d="M27.103 20.903c0-0.652 0.323-1.042 0.495-1.285 0.857-1.217 0.781-2.811-0.186-3.951-0.348-0.41-0.531-0.914-0.531-1.426 0-0.419 0.073-0.565 0.479-1.854 0.299-0.95-0.088-1.974-0.959-2.535-0.685-0.441-1.059-1.157-1.059-1.888 0-1.011 0.563-1.144 0.563-1.983 0-0.743-0.514-1.448-1.347-1.667-0.992-0.262-1.745-0.998-1.993-1.916l-0.12-0.444c-0.292-1.079-1.603-1.598-2.632-1.043-0.691 0.373-1.582 0.274-2.162-0.27-0.914-0.856-2.391-0.851-3.299 0-0.579 0.543-1.471 0.643-2.162 0.27-1.034-0.556-2.341-0.032-2.632 1.043l-0.12 0.444c-0.251 0.927-1.011 1.657-1.993 1.916-1.154 0.304-1.698 1.542-1.104 2.519 0.629 1.035 0.304 2.347-0.739 3.019-0.675 0.434-1.059 1.147-1.059 1.887 0 0.417 0.073 0.563 0.48 1.855 0.225 0.716 0.064 1.49-0.432 2.074-0.968 1.14-1.043 2.735-0.186 3.951l0.152 0.215c0.492 0.699 0.451 1.615-0.103 2.272-0.651 0.772-0.581 1.879 0.161 2.575 1.483 1.483 1.461 1.463 1.468 1.466-0.446 0.761-0.701 1.648-0.701 2.593v2.708c0 0.305 0.247 0.552 0.552 0.552h20.138c0.305 0 0.552-0.247 0.552-0.552v-2.708c0-0.945-0.255-1.832-0.701-2.593 0.007-0.003-0.070 0.072 1.468-1.466 0.742-0.696 0.812-1.803 0.161-2.575-0.296-0.351-0.446-0.777-0.446-1.203z"></path>
<path fill="#e0b7a3" style="fill: var(--color2, #e0b7a3)" d="M22.305 10.087c0.293 0.017 0.522 0.257 0.522 0.551v3.302c0 2.846-1.741 5.285-4.217 6.31-4.477 1.858-9.438-1.443-9.438-6.31v-3.254c0-0.323 0.277-0.579 0.599-0.55 3.309 0.3 6.568-0.536 9.305-2.379 0.311-0.21 0.74-0.054 0.838 0.308 0.34 1.255 1.269 1.958 2.391 2.022z"></path>
<path fill="#42434d" style="fill: var(--color3, #42434d)" d="M27.412 15.668c0.968 1.14 1.043 2.734 0.186 3.951-0.172 0.243-0.495 0.633-0.495 1.285 0 0.426 0.15 0.852 0.446 1.203 0.651 0.772 0.581 1.879-0.161 2.575-1.483 1.483-1.461 1.463-1.468 1.466-0.892-1.525-2.548-2.55-4.442-2.55-1.572 0-2.857-1.27-2.857-2.851v-0.471l-0.010-0.026c2.476-1.025 4.217-3.464 4.217-6.31v-3.302c0-0.293-0.229-0.534-0.522-0.551-1.115-0.064-2.048-0.759-2.391-2.022-0.098-0.362-0.527-0.518-0.838-0.308-2.735 1.842-5.994 2.679-9.305 2.379-0.322-0.029-0.599 0.226-0.599 0.55v3.254c0 2.846 1.741 5.285 4.217 6.31l-0.010 0.026v0.471c0 1.582-1.286 2.851-2.857 2.851-1.894 0-3.55 1.025-4.442 2.55-0.007-0.003 0.070 0.072-1.468-1.466-0.742-0.696-0.811-1.803-0.161-2.575 0.554-0.657 0.595-1.573 0.103-2.272l-0.152-0.215c-0.856-1.216-0.781-2.811 0.186-3.951 0.496-0.584 0.657-1.358 0.432-2.074-0.407-1.292-0.48-1.438-0.48-1.855 0-0.74 0.384-1.452 1.059-1.887 1.044-0.673 1.368-1.984 0.739-3.019-0.594-0.977-0.050-2.215 1.104-2.519 0.982-0.259 1.742-0.989 1.993-1.916l0.12-0.444c0.292-1.076 1.598-1.599 2.632-1.043 0.691 0.373 1.582 0.274 2.162-0.27 0.909-0.851 2.385-0.856 3.299 0 0.58 0.544 1.471 0.642 2.162 0.27 1.030-0.554 2.34-0.035 2.632 1.043l0.12 0.444c0.249 0.918 1.001 1.654 1.993 1.916 0.832 0.219 1.347 0.924 1.347 1.667 0 0.839-0.563 0.972-0.563 1.983 0 0.731 0.374 1.447 1.059 1.888 0.872 0.561 1.259 1.585 0.959 2.535-0.406 1.289-0.479 1.436-0.479 1.854 0 0.512 0.183 1.016 0.531 1.426z"></path>
<path fill="#ffaa64" style="fill: var(--color4, #ffaa64)" d="M26.621 28.741v2.708c0 0.305-0.247 0.552-0.552 0.552h-20.138c-0.305 0-0.552-0.247-0.552-0.552v-2.708c0-2.837 2.3-5.143 5.143-5.143 0.631 0 1.214-0.204 1.688-0.55l0.124 0.803 3.328 2.577c0.199 0.154 0.477 0.154 0.676 0l3.328-2.577 0.124-0.803c0.473 0.346 1.057 0.55 1.688 0.55 2.833 0 5.143 2.297 5.143 5.143z"></path>
<path fill="#42434d" style="fill: var(--color3, #42434d)" d="M19.666 23.851l-1.255 8.149h-4.822l-1.255-8.149 3.328 2.577c0.199 0.154 0.477 0.154 0.676 0z"></path>
<path fill="#ffbd7b" style="fill: var(--color5, #ffbd7b)" d="M12.603 25.597c-3.234 0.083-5.223 2.518-5.223 5.144v1.259h-1.448c-0.305 0-0.552-0.247-0.552-0.552v-2.708c0-2.837 2.3-5.143 5.143-5.143 0.631 0 1.214-0.204 1.688-0.55 0.157 1.015 0.074 0.48 0.393 2.549z"></path>
<path fill="#faa157" style="fill: var(--color6, #faa157)" d="M19.397 25.597c3.234 0.083 5.223 2.518 5.223 5.144v1.259h1.448c0.305 0 0.552-0.247 0.552-0.552v-2.708c0-2.837-2.3-5.143-5.143-5.143-0.631 0-1.214-0.204-1.688-0.55-0.157 1.015-0.074 0.48-0.393 2.549z"></path>
<path fill="#2c2c33" style="fill: var(--color7, #2c2c33)" d="M14.968 32h-1.379l-1.255-8.149 1.566 1.212z"></path>
<path fill="#a07765" style="fill: var(--color8, #a07765)" d="M18.699 21.408c-1.699 0.711-3.566 0.766-5.397 0 0.094-0.388 0.078-0.639 0.078-1.132l0.010-0.026c1.661 0.689 3.557 0.691 5.221 0l0.010 0.026c0 0.493-0.016 0.745 0.078 1.132z"></path>
<path fill="#4d4e59" style="fill: var(--color9, #4d4e59)" d="M22.444 1.953c0.102 0.379-0.106 0.774-0.478 0.898-0.099 0.033-0.197 0.076-0.293 0.127-0.691 0.373-1.582 0.274-2.162-0.27-0.914-0.856-2.391-0.851-3.299 0-0.579 0.543-1.471 0.643-2.162 0.27-1.034-0.556-2.341-0.032-2.632 1.043l-0.12 0.444c-0.251 0.927-1.011 1.657-1.993 1.916-1.154 0.304-1.698 1.542-1.104 2.519 0.629 1.035 0.304 2.347-0.739 3.019-0.675 0.434-1.059 1.147-1.059 1.887 0 0.417 0.073 0.563 0.48 1.855 0.225 0.716 0.064 1.49-0.432 2.074-0.968 1.14-1.043 2.735-0.186 3.951l0.152 0.215c0.492 0.699 0.451 1.615-0.103 2.272-0.078 0.092-0.145 0.189-0.203 0.29-0.309 0.542-1.044 0.671-1.499 0.216-0.742-0.696-0.812-1.803-0.161-2.575 0.554-0.657 0.595-1.573 0.103-2.272l-0.152-0.215c-0.857-1.216-0.781-2.811 0.186-3.951 0.496-0.584 0.657-1.358 0.432-2.074-0.407-1.292-0.48-1.439-0.48-1.855 0-0.74 0.384-1.452 1.059-1.887 1.043-0.672 1.368-1.984 0.739-3.019-0.594-0.977-0.050-2.215 1.104-2.519 0.982-0.259 1.742-0.989 1.993-1.916l0.12-0.444c0.292-1.076 1.598-1.599 2.632-1.043 0.691 0.373 1.583 0.274 2.162-0.27 0.908-0.851 2.386-0.856 3.299 0 0.58 0.544 1.471 0.643 2.162 0.27 1.030-0.554 2.34-0.035 2.632 1.043z"></path>
<path fill="#f2d1c2" style="fill: var(--color10, #f2d1c2)" d="M14.691 18.514c1.030 0.69 0.245 2.285-0.925 1.874-2.571-0.902-4.594-3.302-4.594-6.448v-3.254c0-0.323 0.277-0.579 0.599-0.55 0.264 0.024 0.554 0.043 0.868 0.052 0.567 0.017 1.016 0.485 1.016 1.052v1.596c0 2.402 1.225 4.465 3.036 5.677z"></path>
</symbol>
<symbol id="icon-boy3" viewBox="0 0 32 32">
<path fill="#eaeae8" style="fill: var(--color11, #eaeae8)" d="M20.5 22l7.372 4.096c1.007 0.567 1.717 1.56 1.889 2.728l0.002 0.020 0.237 1.656h-28l0.245-1.713c0.17-1.157 0.847-2.127 1.794-2.692l0.017-0.009 6.944-4.085z"></path>
<path fill="#683b0d" style="fill: var(--color12, #683b0d)" d="M9.5 12.5v-5.5c-0.927-0.927-1.5-2.207-1.5-3.621v0-1.879l2.12 0.53c1.146 0.299 2.462 0.47 3.818 0.47h3.144c0.612 0 1.166 0.248 1.567 0.649l1.351 1.351c0 0 0 0 0 0 0.927 0 1.721 0.57 2.052 1.378l0.005 0.015c0.28 0.681 0.443 1.471 0.443 2.3 0 0 0 0 0 0v0 4.307z"></path>
<path fill="#533222" style="fill: var(--color13, #533222)" d="M13.5 7c-0.081-0-0.158-0.020-0.226-0.054l0.003 0.001-1.106-0.553c-0.699-0.352-1.171-1.065-1.171-1.887 0-0.003 0-0.005 0-0.008v0c0-0.276 0.224-0.5 0.5-0.5s0.5 0.224 0.5 0.5v0c0 0.001 0 0.002 0 0.004 0 0.434 0.249 0.81 0.612 0.993l0.006 0.003 1.106 0.553c0.165 0.084 0.276 0.253 0.276 0.447 0 0.276-0.224 0.5-0.5 0.5-0 0-0 0-0 0h0z"></path>
<path fill="#533222" style="fill: var(--color13, #533222)" d="M16 7c-0.081-0-0.158-0.020-0.226-0.054l0.003 0.001-1.106-0.553c-0.699-0.352-1.171-1.065-1.171-1.887 0-0.003 0-0.005 0-0.008v0c0-0.276 0.224-0.5 0.5-0.5s0.5 0.224 0.5 0.5v0c0 0.001 0 0.002 0 0.004 0 0.434 0.249 0.81 0.612 0.993l0.006 0.003 1.106 0.553c0.165 0.084 0.276 0.253 0.276 0.447 0 0.276-0.224 0.5-0.5 0.5-0 0-0 0-0 0h0z"></path>
<path fill="#533222" style="fill: var(--color13, #533222)" d="M18.5 7c-0.081-0-0.158-0.020-0.226-0.054l0.003 0.001-1.106-0.553c-0.699-0.352-1.171-1.065-1.171-1.887 0-0.003 0-0.005 0-0.008v0c0-0.276 0.224-0.5 0.5-0.5s0.5 0.224 0.5 0.5v0c0 0.001 0 0.002 0 0.004 0 0.434 0.249 0.81 0.612 0.993l0.006 0.003 1.106 0.553c0.165 0.084 0.276 0.253 0.276 0.447 0 0.276-0.224 0.5-0.5 0.5-0 0-0 0-0 0h0z"></path>
<path fill="#fdc9a6" style="fill: var(--color14, #fdc9a6)" d="M18.5 20.5l-0.5-1h-4l-0.5 1-0.5 0.5 3 2.5 3-2.4z"></path>
<path fill="#e6af89" style="fill: var(--color15, #e6af89)" d="M18.398 20.296c-0.678 0.442-1.507 0.704-2.398 0.704s-1.72-0.263-2.415-0.715l0.017 0.010 0.398-0.796h4z"></path>
<path fill="#fdc9a6" style="fill: var(--color14, #fdc9a6)" d="M16 20c-1.854-0-3.443-1.139-4.104-2.756l-0.011-0.030c-0.56-1.362-0.886-2.943-0.886-4.6 0-0 0-0 0-0v0-3.615l1.5-2.5h7l1.5 2.5v3.615c0 0 0 0 0 0 0 1.657-0.325 3.238-0.916 4.682l0.030-0.083c-0.672 1.646-2.26 2.785-4.114 2.785 0 0 0 0 0 0v0z"></path>
<path fill="#683b0d" style="fill: var(--color12, #683b0d)" d="M19 11h-1.5c-0.276 0-0.5-0.224-0.5-0.5s0.224-0.5 0.5-0.5v0h1.5c0.276 0 0.5 0.224 0.5 0.5s-0.224 0.5-0.5 0.5v0z"></path>
<path fill="#683b0d" style="fill: var(--color12, #683b0d)" d="M18.75 12.125c0 0.345-0.28 0.625-0.625 0.625s-0.625-0.28-0.625-0.625c0-0.345 0.28-0.625 0.625-0.625s0.625 0.28 0.625 0.625z"></path>
<path fill="#683b0d" style="fill: var(--color12, #683b0d)" d="M14.5 11h-1.5c-0.276 0-0.5-0.224-0.5-0.5s0.224-0.5 0.5-0.5v0h1.5c0.276 0 0.5 0.224 0.5 0.5s-0.224 0.5-0.5 0.5v0z"></path>
<path fill="#683b0d" style="fill: var(--color12, #683b0d)" d="M14.5 12.125c0 0.345-0.28 0.625-0.625 0.625s-0.625-0.28-0.625-0.625c0-0.345 0.28-0.625 0.625-0.625s0.625 0.28 0.625 0.625z"></path>
<path fill="#e6af89" style="fill: var(--color15, #e6af89)" d="M15.5 17c-0 0-0 0-0 0-0.276 0-0.5-0.224-0.5-0.5 0-0.233 0.16-0.429 0.376-0.484l0.003-0.001 2-0.5c0.035-0.009 0.076-0.014 0.118-0.014 0.276 0 0.5 0.224 0.5 0.5 0 0.232-0.158 0.427-0.372 0.483l-0.003 0.001-2 0.5c-0.037 0.010-0.078 0.015-0.122 0.015v0z"></path>
<path fill="#e6af89" style="fill: var(--color15, #e6af89)" d="M16.5 15h-1c-0.276 0-0.5-0.224-0.5-0.5v0-1.5c0-0.276 0.224-0.5 0.5-0.5s0.5 0.224 0.5 0.5v0 1h0.5c0.276 0 0.5 0.224 0.5 0.5s-0.224 0.5-0.5 0.5v0z"></path>
<path fill="#fdc9a6" style="fill: var(--color14, #fdc9a6)" d="M11 10.5h-0.691c-0.723 0-1.309 0.586-1.309 1.309v0 0.882c0 0.213 0.051 0.415 0.142 0.593l-0.003-0.007c0.22 0.432 0.661 0.724 1.171 0.724h1.191z"></path>
<path fill="#fdc9a6" style="fill: var(--color14, #fdc9a6)" d="M21 10.5h0.691c0.723 0 1.309 0.586 1.309 1.309v0 0.882c0 0.213-0.051 0.415-0.142 0.593l0.003-0.007c-0.22 0.432-0.661 0.724-1.171 0.724h-1.191z"></path>
<path fill="#cbcbcb" style="fill: var(--color16, #cbcbcb)" d="M4.5 30.5v-2c0-0.276 0.224-0.5 0.5-0.5s0.5 0.224 0.5 0.5v0 2z"></path>
<path fill="#cbcbcb" style="fill: var(--color16, #cbcbcb)" d="M26.5 30.5v-2c0-0.276 0.224-0.5 0.5-0.5s0.5 0.224 0.5 0.5v0 2z"></path>
<path fill="#0a9acd" style="fill: var(--color17, #0a9acd)" d="M17 26h-2l-1-3 2 0.5 2-0.5z"></path>
<path fill="#0a9acd" style="fill: var(--color17, #0a9acd)" d="M15 26l-0.5 4.5h3l-0.5-4.5z"></path>
<path fill="#0a9acd" style="fill: var(--color17, #0a9acd)" d="M17.111 27h-2.223l0.111-1h2z"></path>
<path fill="#cbcbcb" style="fill: var(--color16, #cbcbcb)" d="M25 29h-4c-0.276 0-0.5-0.224-0.5-0.5s0.224-0.5 0.5-0.5v0h4c0.276 0 0.5 0.224 0.5 0.5s-0.224 0.5-0.5 0.5v0z"></path>
<path fill="#cbcbcb" style="fill: var(--color16, #cbcbcb)" d="M13 20.5l3 3-3 1.5-2-3z"></path>
<path fill="#cbcbcb" style="fill: var(--color16, #cbcbcb)" d="M19 25l-3-1.5 3-3 1.5 1.5z"></path>
<path fill="#026ca2" style="fill: var(--color18, #026ca2)" d="M17.111 27h-2.223l0.111-1h2z"></path>
</symbol>
<symbol id="icon-girl2" viewBox="0 0 32 32">
<path fill="#394949" style="fill: var(--color19, #394949)" d="M25.992 23.471v-13.598c0-5.452-4.42-9.872-9.872-9.872h-0.24c-5.452 0-9.872 4.42-9.872 9.872v13.598z"></path>
<path fill="#151f1f" style="fill: var(--color20, #151f1f)" d="M25.992 23.471v-13.598c0-5.452-4.42-9.872-9.872-9.872h-0.12v23.47z"></path>
<path fill="#394949" style="fill: var(--color19, #394949)" d="M32 28.851v2.21c0 0.518-0.42 0.938-0.938 0.938h-7.001l-1.468-4.344 1.468-4.518 3.067 0.531c2.831 0.49 4.871 2.661 4.871 5.183z"></path>
<path fill="#496a6f" style="fill: var(--color21, #496a6f)" d="M8.036 23.12l2.316 4.938-2.316 3.941h-7.098c-0.518 0-0.938-0.42-0.938-0.938v-2.21c0-2.523 2.040-4.693 4.871-5.183z"></path>
<path fill="#c974f4" style="fill: var(--color22, #c974f4)" d="M24.062 23.137v8.862h-16.026v-8.879l4.136-0.716h7.656z"></path>
<path fill="#9e5ae6" style="fill: var(--color23, #9e5ae6)" d="M16.049 22.404v9.595h8.013v-8.862l-4.234-0.733z"></path>
<path fill="#f6a96c" style="fill: var(--color24, #f6a96c)" d="M19.828 21.115v3.115c0 1.057-0.429 2.014-1.121 2.707-0.695 0.695-1.655 1.124-2.717 1.121-2.119-0.006-3.818-1.765-3.818-3.885v-3.058z"></path>
<path fill="#d88a55" style="fill: var(--color25, #d88a55)" d="M16.049 28.057c1.038-0.013 1.976-0.438 2.658-1.12 0.693-0.693 1.121-1.649 1.121-2.707v-3.115h-3.779z"></path>
<path fill="#ffbd86" style="fill: var(--color26, #ffbd86)" d="M22.196 11.992v3.998s-0.346 3.17-2.368 5.125c-0.57 0.552-1.274 1.007-2.142 1.267-0.505 0.152-1.065 0.238-1.686 0.238s-1.181-0.086-1.686-0.238c-0.867-0.26-1.571-0.715-2.142-1.267-2.023-1.956-2.368-5.125-2.368-5.125v-3.998c4.198-1.999 6.196-7.994 6.196-7.994s1.998 5.995 6.196 7.994z"></path>
<path fill="#f6a96c" style="fill: var(--color24, #f6a96c)" d="M17.413 17.995c-0.24 0-0.48-0.091-0.663-0.275-0.414-0.414-1.087-0.414-1.501 0-0.366 0.366-0.96 0.366-1.326 0s-0.366-0.96 0-1.326c1.145-1.145 3.007-1.145 4.152 0 0.366 0.366 0.366 0.96 0 1.326-0.183 0.183-0.423 0.275-0.663 0.275z"></path>
<path fill="#f6a96c" style="fill: var(--color24, #f6a96c)" d="M17.686 22.382c0.867-0.26 1.571-0.715 2.142-1.267 2.023-1.956 2.368-5.125 2.368-5.125v-3.998c-4.198-1.999-6.196-7.994-6.196-7.994v18.622c0.622 0 1.182-0.086 1.686-0.238z"></path>
<path fill="#d88a55" style="fill: var(--color25, #d88a55)" d="M16.75 17.72c0.183 0.183 0.423 0.275 0.663 0.275s0.48-0.091 0.663-0.275c0.366-0.366 0.366-0.96 0-1.326-0.572-0.572-1.324-0.859-2.076-0.859v1.874c0.272 0 0.543 0.103 0.75 0.31z"></path>
</symbol>
<symbol id="icon-girl3" viewBox="0 0 32 32">
<path fill="#fc90ce" style="fill: var(--color27, #fc90ce)" d="M2.957 24.712h26.085c1.439-2.334 2.27-5.082 2.27-8.025 0-8.457-6.856-15.313-15.313-15.313s-15.313 6.856-15.313 15.313c0 2.943 0.831 5.691 2.27 8.025z"></path>
<path fill="#56415e" style="fill: var(--color28, #56415e)" d="M25.985 14.73c0-0.839-0.357-1.595-0.927-2.125-0.701-0.651-0.865-1.586-0.613-2.349 0.935-2.843-1.16-3.874-2.507-7.435-1.171-3.097-4.485-2.901-5.557-2.75-0.126 0.018-0.254 0.025-0.381 0.022-0.127 0.002-0.255-0.005-0.381-0.022-1.072-0.151-4.386-0.347-5.557 2.75-1.347 3.561-3.442 4.592-2.507 7.435 0.251 0.764 0.088 1.698-0.613 2.349-0.57 0.529-0.927 1.285-0.927 2.125 0 0.549 0.152 1.062 0.417 1.499 0.332 0.548 0.485 1.189 0.415 1.826-0.090 0.823 0.054 1.753 0.733 2.641h16.84c0.679-0.889 0.824-1.818 0.733-2.641-0.070-0.637 0.083-1.278 0.415-1.826 0.265-0.438 0.417-0.95 0.417-1.499z"></path>
<path fill="#45304c" style="fill: var(--color29, #45304c)" d="M16 0.093c-0.127 0.002-0.255-0.005-0.381-0.022-1.072-0.151-4.386-0.347-5.557 2.75-1.347 3.561-3.442 4.592-2.507 7.435 0.251 0.764 0.088 1.698-0.613 2.349-0.57 0.529-0.927 1.285-0.927 2.125 0 0.549 0.152 1.062 0.417 1.499 0.332 0.548 0.485 1.189 0.415 1.826-0.090 0.823 0.054 1.753 0.733 2.641h16.84c0.679-0.889 0.824-1.818 0.733-2.641-0.070-0.637 0.083-1.278 0.415-1.826-4.385 1.763-5.209-1.884-5.209-1.884s-2.645-7.598-4.628-9.965 0.269-4.286 0.269-4.286z"></path>
<path fill="#9589e8" style="fill: var(--color30, #9589e8)" d="M18.454 24.247c-0.361 0.219-0.74 0.415-1.136 0.587-0.811 0.351-1.742 0.351-2.553 0-0.393-0.17-0.77-0.366-1.129-0.583v7.568c0.771 0.119 1.56 0.182 2.364 0.182 0.835 0 1.655-0.068 2.454-0.197z"></path>
<path fill="#cc8c60" style="fill: var(--color31, #cc8c60)" d="M12.549 18.521c0.254 0.753 0.799 1.806 1.959 2.574 0.268 0.178 0.317 0.552 0.106 0.794l-1.54 1.764c-0.070 0.081-0.153 0.14-0.242 0.181 0.588 0.446 1.236 0.825 1.935 1.127 0.811 0.351 1.742 0.351 2.553 0 0.699-0.302 1.347-0.681 1.935-1.127-0.089-0.041-0.172-0.1-0.242-0.181l-1.54-1.764c-0.211-0.242-0.163-0.616 0.106-0.794 1.133-0.75 1.68-1.772 1.941-2.522-0.522-0.405-0.861-0.869-0.861-1.391 0-0.369 0-0.259 0-0.498-0.644 0.575-1.747 1.309-2.657 1.331-0.909-0.022-2.013-0.755-2.657-1.331v0.498c0 0.5-0.31 0.947-0.794 1.339z"></path>
<path fill="#ba7d54" style="fill: var(--color32, #ba7d54)" d="M16.007 18.015c-0.002 0-0.005 0-0.007 0-0.909-0.022-2.013-0.755-2.657-1.331v0.498c0 0.5-0.31 0.947-0.794 1.339 0.251 0.745 0.788 1.784 1.922 2.549 0.030-0.017 0.060-0.035 0.090-0.055 0.99-0.655 1.332-2.178 1.447-3z"></path>
<path fill="#ba7d54" style="fill: var(--color32, #ba7d54)" d="M10.887 11.592s-0.32-2.022 0.049-3.226c-0.334-0.223-0.979-0.331-1.269-0.048-0.594 0.581-0.159 1.458 0.050 2.012 0.064 0.17 0.105 0.342 0.124 0.514 0.040 0.374 0.244 0.923 1.085 0.91-0.013-0.054-0.026-0.107-0.038-0.162z"></path>
<path fill="#cc8c60" style="fill: var(--color31, #cc8c60)" d="M22.417 8.318c-0.29-0.284-0.935-0.175-1.269 0.048 0.368 1.204 0.049 3.226 0.049 3.226-0.012 0.055-0.025 0.108-0.038 0.162 0.842 0.013 1.045-0.535 1.085-0.91 0.019-0.172 0.060-0.344 0.124-0.514 0.208-0.554 0.644-1.431 0.049-2.012z"></path>
<path fill="#dba783" style="fill: var(--color33, #dba783)" d="M20.871 7.739c-0.121-0.137-0.188-0.296-0.193-0.462-0.019-0.63-0.178-2.171-1.246-2.882-0.758-0.505-1.823-0.499-3.166 0.016-0.145 0.056-0.305 0.056-0.449 0-0.086-0.033-0.171-0.064-0.255-0.093-1.074 0.752-1.238 2.253-1.258 2.877-0.005 0.169-0.078 0.332-0.21 0.472-0.729 0.77-0.569 3.018-0.399 3.944 0.377 1.558 0.922 2.916 1.621 4.037 0.538 0.862 1.286 1.578 2.192 2.108 0.936-0.53 1.703-1.281 2.242-2.202 0.641-1.098 1.142-2.428 1.488-3.956 0.15-0.953 0.309-3.097-0.367-3.86z"></path>
<path fill="#cc8c60" style="fill: var(--color31, #cc8c60)" d="M15.364 15.554c-0.684-1.098-1.219-2.428-1.587-3.953-0.166-0.907-0.323-3.108 0.391-3.862 0.13-0.137 0.201-0.296 0.206-0.462 0.020-0.63 0.19-2.171 1.329-2.882 0.009-0.006 0.019-0.010 0.028-0.016-1.302-0.482-2.338-0.478-3.079 0.016-1.068 0.711-1.227 2.252-1.246 2.882-0.005 0.165-0.072 0.325-0.193 0.462-0.669 0.754-0.522 2.956-0.366 3.862 0.346 1.525 0.846 2.855 1.488 3.953 0.651 1.115 1.637 1.981 2.852 2.507 0.544 0.235 1.168 0.235 1.712 0 0.254-0.11 0.497-0.235 0.73-0.374-0.941-0.525-1.714-1.251-2.264-2.132z"></path>
<path fill="#d3dcfb" style="fill: var(--color34, #d3dcfb)" d="M29.043 24.712c-0.138-0.548-0.306-1.035-0.509-1.441-0.976-1.952-2.69-2.498-3.47-2.648 0 0-1.687-0.308-3.33-0.915 0.024 0.108 0.019 0.221-0.017 0.328-0.465 1.375-1.095 2.654-1.542 3.486-0.236 0.44-0.836 0.507-1.163 0.13l-0.727-0.832v9.009c4.548-0.68 8.442-3.361 10.758-7.118z"></path>
<path fill="#d3dcfb" style="fill: var(--color34, #d3dcfb)" d="M11.826 23.523c-0.221-0.412-0.487-0.934-0.756-1.522-0.006 0.033-0.012 0.066-0.018 0.1-0.512 0.039-3.318 0.355-3.318 2.612v4.864c1.799 1.156 3.856 1.947 6.065 2.265v-9.117l-0.811 0.928c-0.327 0.377-0.927 0.309-1.163-0.13z"></path>
<path fill="#bec8f7" style="fill: var(--color35, #bec8f7)" d="M7.828 24.712c0-2.409 3.306-2.523 3.306-2.523 0.002-0.012 0.004-0.023 0.005-0.036-0.297-0.639-0.601-1.363-0.857-2.117-0.036-0.107-0.041-0.22-0.018-0.328-1.643 0.607-3.33 0.915-3.33 0.915-0.781 0.15-2.494 0.695-3.47 2.648-0.203 0.406-0.371 0.893-0.509 1.441 1.227 1.99 2.896 3.677 4.871 4.925 0-1.307 0-3.388 0-4.925z"></path>
<path fill="#deeeff" style="fill: var(--color36, #deeeff)" d="M21.654 19.354c-0.405-0.442-0.862-0.833-1.361-1.164-0.309-0.205-0.726-0.065-0.844 0.287-0.231 0.692-0.759 1.766-1.925 2.538-0.317 0.21-0.375 0.651-0.125 0.937l1.54 1.764c0.371 0.427 1.053 0.35 1.32-0.148 0.452-0.842 1.082-2.123 1.549-3.501 0.084-0.248 0.023-0.521-0.154-0.714z"></path>
<path fill="#deeeff" style="fill: var(--color36, #deeeff)" d="M14.561 21.015c-0.452-0.299-0.807-0.643-1.087-0.993-0.398 0.003-2.094 0.129-2.41 2.013 0.27 0.591 0.538 1.117 0.762 1.534 0.268 0.498 0.95 0.575 1.32 0.148l1.54-1.764c0.25-0.286 0.191-0.727-0.125-0.937z"></path>
<path fill="#d3dcfb" style="fill: var(--color34, #d3dcfb)" d="M11.792 18.19c-0.499 0.332-0.956 0.722-1.361 1.164-0.177 0.193-0.238 0.466-0.154 0.714 0.256 0.755 0.56 1.481 0.858 2.121 0.275-2.213 2.417-2.072 2.417-2.072-0.492-0.583-0.766-1.192-0.916-1.64-0.117-0.351-0.535-0.492-0.844-0.287z"></path>
<path fill="#ffbbe5" style="fill: var(--color37, #ffbbe5)" d="M1.424 21.39c2.002-0.034 3.608-1.884 2.968-4.031-0.828-2.781 0.016-6.407 1.203-9.117 0.487-1.112 0.372-2.087 0.066-2.849-3.057 2.8-4.974 6.823-4.974 11.295 0 1.641 0.259 3.221 0.737 4.703z"></path>
<path fill="#ffbbe5" style="fill: var(--color37, #ffbbe5)" d="M30.576 21.39c-2.002-0.034-3.608-1.884-2.968-4.031 0.828-2.781-0.016-6.407-1.203-9.117-0.487-1.112-0.372-2.087-0.066-2.849 3.057 2.8 4.974 6.823 4.974 11.295-0 1.641-0.259 3.221-0.737 4.703z"></path>
<path fill="#bec8f7" style="fill: var(--color35, #bec8f7)" d="M27.351 26.964c-0.303-1.253-1.076-1.976-1.7-2.371-0.391-0.247-0.9 0.031-0.9 0.493v4.168c0.951-0.664 1.824-1.433 2.601-2.29z"></path>
</symbol>
<symbol id="icon-boy1" viewBox="0 0 32 32">
<path fill="#afe6ff" style="fill: var(--color38, #afe6ff)" d="M16 0.402c-6.080 0-9.825 3.429-9.835 3.435 0 0-0.156 0.194-0.185 0.324-0.237 1.050-0.458 2.457-0.458 3.484 0 8.726 7.358 15.797 16.084 15.797 3.36 0 7.098-1.61 9.6-3.547 0.056-0.043 0.234-0.334 0.234-0.334 0.011-0.067 0.359-1.455 0.359-3.36 0-8.726-7.073-15.799-15.799-15.799z"></path>
<path fill="#73c8f0" style="fill: var(--color39, #73c8f0)" d="M21.605 22.996c-8.726 0-15.799-7.073-15.799-15.799 0-1.153 0.124-2.277 0.359-3.36-3.633 2.895-5.964 7.357-5.964 12.364 0 3.801 1.342 7.288 3.579 10.014l24.441 0c1.553-1.893 2.678-4.158 3.219-6.654-2.699 2.15-6.117 3.435-9.835 3.435z"></path>
<path fill="#ff965a" style="fill: var(--color40, #ff965a)" d="M22.477 12.989h-0.063l-0.428-2.104 0.428-1.736h0.063c0.837 0 1.515 0.678 1.515 1.515v0.811c0 0.837-0.678 1.515-1.515 1.515z"></path>
<path fill="#ff3c3c" style="fill: var(--color41, #ff3c3c)" d="M23.992 21.606c0 3.51-3.518 6.355-7.857 6.355s-7.857-2.845-7.857-6.355c0-3.51 3.518-6.355 7.857-6.355s7.857 2.845 7.857 6.355z"></path>
<path fill="#ff3c3c" style="fill: var(--color41, #ff3c3c)" d="M24.577 21.007l-0.147-0.032-5.029-0.238c-4.832-0.229-8.876 3.627-8.876 8.465v1.823c1.706 0.63 3.55 0.976 5.474 0.976 4.895 0 9.31-2.238 12.221-5.785v-0.671c0-2.18-1.515-4.067-3.643-4.538z"></path>
<path fill="#dc1428" style="fill: var(--color42, #dc1428)" d="M16.147 26.957c4.733 0 8.569-0.644 8.569-4.472 0-0.512-0.069-1.011-0.199-1.491l-8.535-1.889-8.562 1.9c-2.144 0.476-3.64 2.377-3.64 4.537v0.673c1.782 2.172 4.132 3.86 6.822 4.839 0.689-2.372 2.883-4.1 5.478-4.097 0.022 0 0.044 0 0.067 0z"></path>
<path fill="#ff3c3c" style="fill: var(--color41, #ff3c3c)" d="M23.992 21.606c0 3.51-3.518 4.101-7.857 4.101s-7.857-0.591-7.857-4.101 3.518-6.355 7.857-6.355 7.857 2.845 7.857 6.355z"></path>
<path fill="#dc1428" style="fill: var(--color42, #dc1428)" d="M21.536 20.746c0 2.413-2.418 4.369-5.402 4.369s-5.402-1.956-5.402-4.369 2.418-1.829 5.402-1.829 5.402-0.584 5.402 1.829z"></path>
<path fill="#ff965a" style="fill: var(--color40, #ff965a)" d="M16.015 23.874c1.257 0 2.276-1.019 2.276-2.276v-5.098h-4.552v5.098c0 1.257 1.019 2.276 2.276 2.276z"></path>
<path fill="#ef6a30" style="fill: var(--color43, #ef6a30)" d="M15.267 21.187c0 0 0-0 0-0-0.529-0.028-1.040-0.121-1.528-0.269v-4.418h4.174l0.378 3.408c-0.561 0.902-2.127 1.327-3.024 1.279z"></path>
<path fill="#ffbe82" style="fill: var(--color44, #ffbe82)" d="M22.189 8.514c0-2.077-1.332-3.976-3.409-3.976h-5.529c-0.593 0-1.135 0.155-1.609 0.424v10.978c0 2.396 1.927 4.357 4.323 4.375 0.017 0 0.034 0 0.050 0 3.569 0 6.462-2.893 6.462-6.462v-2.040z"></path>
<path fill="#ef6a30" style="fill: var(--color43, #ef6a30)" d="M22.477 11.797v-1.456c0.317 0 0.575 0.257 0.575 0.575v0.307c0 0.317-0.257 0.574-0.575 0.574z"></path>
<path fill="#ff965a" style="fill: var(--color40, #ff965a)" d="M7.974 11.474c0 0.837 0.678 1.515 1.515 1.515h0.097l0.776-1.634-0.763-2.207h-0.11c-0.837 0-1.515 0.678-1.515 1.515v0.811z"></path>
<path fill="#ef6a30" style="fill: var(--color43, #ef6a30)" d="M8.873 11.234c0 0.34 0.276 0.616 0.616 0.616v-1.562c-0.34 0-0.616 0.276-0.616 0.616z"></path>
<path fill="#fff" style="fill: var(--color45, #fff)" d="M8.46 11.929c0 0.569 0.461 1.030 1.030 1.030v-2.047c-0.569 0-1.030 0.461-1.030 1.030z"></path>
<path fill="#ff965a" style="fill: var(--color40, #ff965a)" d="M13.223 11.44v0.456c0 0.297 0.241 0.538 0.538 0.538s0.538-0.241 0.538-0.538v-0.456z"></path>
<path fill="#ff965a" style="fill: var(--color40, #ff965a)" d="M17.608 11.44v0.456c0 0.297 0.241 0.538 0.538 0.538s0.538-0.241 0.538-0.538v-0.456z"></path>
<path fill="#373c41" style="fill: var(--color46, #373c41)" d="M13.761 12.003c-0.297 0-0.538-0.241-0.538-0.538v-0.692l0.198-0.3-0.198-0.3v-0.179c0-0.297 0.241-0.538 0.538-0.538s0.538 0.241 0.538 0.538v1.472c0 0.297-0.241 0.538-0.538 0.538z"></path>
<path fill="#373c41" style="fill: var(--color46, #373c41)" d="M18.146 12.003c-0.297 0-0.538-0.241-0.538-0.538v-0.692l0.198-0.3-0.198-0.3v-0.179c0-0.297 0.241-0.538 0.538-0.538s0.538 0.241 0.538 0.538v1.472c0 0.297-0.241 0.538-0.538 0.538z"></path>
<path fill="#373c41" style="fill: var(--color46, #373c41)" d="M14.47 9.185h-1.569c-0.297 0-0.538-0.241-0.538-0.538s0.241-0.538 0.538-0.538h1.569c0.297 0 0.538 0.241 0.538 0.538s-0.241 0.538-0.538 0.538z"></path>
<path fill="#373c41" style="fill: var(--color46, #373c41)" d="M18.955 9.185h-1.569c-0.297 0-0.538-0.241-0.538-0.538s0.241-0.538 0.538-0.538h1.569c0.297 0 0.538 0.241 0.538 0.538s-0.241 0.538-0.538 0.538z"></path>
<path fill="#be1423" style="fill: var(--color47, #be1423)" d="M17.997 14.98h-0.554l-1.459 0.303-1.459-0.303h-0.49c-0.164 0-0.296 0.144-0.274 0.307 0.042 0.312 0.147 0.604 0.302 0.862l2.955 0.876c0.667-0.328 1.151-0.972 1.254-1.738 0.022-0.163-0.109-0.307-0.274-0.307z"></path>
<path fill="#ff965a" style="fill: var(--color40, #ff965a)" d="M21.427 6.266c0.062 0 0.123-0.003 0.183-0.007-0.58-1.018-1.567-1.721-2.83-1.721h-5.529c-0.593 0-1.135 0.155-1.609 0.424v0.138c-1.216 0.567-2.009 1.782-2.009 3.272l-0.142 3.443v1.976c0 3.73 3.125 6.715 6.876 6.516-2.717-0.789-4.702-3.296-4.702-6.267 0.016-0.367 0-3.925 0-5.276 0-0.010 0-0.019 0-0.029 0.010-1.374 1.143-2.477 2.517-2.475z"></path>
<path fill="#ff965a" style="fill: var(--color40, #ff965a)" d="M15.143 12.767c-0.134 0.534 0.109 1.116 0.574 1.292 0.094 0.035 0.194 0.054 0.298 0.054s0.204-0.019 0.298-0.054c0.465-0.175 0.708-0.757 0.574-1.292l-0.444-1.771c-0.112-0.446-0.745-0.446-0.857 0z"></path>
<path fill="#262a2d" style="fill: var(--color48, #262a2d)" d="M22.477 4.929v6.885c-0.478 0-0.866-0.387-0.866-0.866v-3.822c0-0.844-0.475-1.622-1.234-1.991-0.019-0.009-0.037-0.018-0.056-0.027v-0.18h2.155z"></path>
<path fill="#fff" style="fill: var(--color45, #fff)" d="M13.422 10.971c-0.11 0-0.198-0.089-0.198-0.198v-0.601c0-0.11 0.089-0.198 0.198-0.198s0.198 0.089 0.198 0.198v0.601c0 0.11-0.089 0.198-0.198 0.198z"></path>
<path fill="#fff" style="fill: var(--color45, #fff)" d="M17.807 10.971c-0.11 0-0.198-0.089-0.198-0.198v-0.601c0-0.11 0.089-0.198 0.198-0.198s0.198 0.089 0.198 0.198v0.601c0 0.11-0.089 0.198-0.198 0.198z"></path>
<path fill="#ff3c3c" style="fill: var(--color41, #ff3c3c)" d="M14.062 16.148c0.398 0.663 1.123 1.108 1.953 1.108 0.359 0 0.699-0.084 1.001-0.232-0.13-0.815-0.836-1.438-1.687-1.438-0.503-0-0.954 0.217-1.267 0.562z"></path>
<path fill="#fff" style="fill: var(--color45, #fff)" d="M17.122 15.586h-2.277c-0.177 0-0.321-0.144-0.321-0.321v-0.285h2.919v0.285c-0 0.177-0.144 0.321-0.321 0.321z"></path>
<path fill="#373c41" style="fill: var(--color46, #373c41)" d="M16.958 0.006c-1.849 0.002-3.336 1.52-3.303 3.369 0.014 0.788 0.035 1.576 0.068 2.363 0 0.006 0.001 0.013 0.001 0.020l7.703 0.008c1.34 0.001 2.428-1.085 2.428-2.425v-3.34z"></path>
<path fill="#262a2d" style="fill: var(--color48, #262a2d)" d="M13.748 3.696c0-2.034 1.648-3.684 3.682-3.686h-4.259c-2.034 0.002-3.682 1.652-3.682 3.686v8.119c0.478 0 0.866-0.387 0.866-0.866v-3.822c0-0.005 0-0.010 0-0.015 0.005-0.754 0.633-1.357 1.387-1.356l2.006 0.002v-2.062z"></path>
<path fill="#dc1428" style="fill: var(--color42, #dc1428)" d="M13.035 30.773c-0.207 0-0.376-0.168-0.376-0.376v-4.342c0-0.207 0.168-0.376 0.376-0.376s0.376 0.168 0.376 0.376v4.342c0 0.207-0.168 0.376-0.376 0.376z"></path>
<path fill="#fff" style="fill: var(--color45, #fff)" d="M13.035 29.833c-0.207 0-0.376-0.168-0.376-0.376v-4.342c0-0.207 0.168-0.376 0.376-0.376s0.376 0.168 0.376 0.376v4.342c0 0.208-0.168 0.376-0.376 0.376z"></path>
<path fill="#dc1428" style="fill: var(--color42, #dc1428)" d="M19.172 30.773c-0.207 0-0.376-0.168-0.376-0.376v-4.342c0-0.207 0.168-0.376 0.376-0.376s0.376 0.168 0.376 0.376v4.342c0 0.207-0.168 0.376-0.376 0.376z"></path>
<path fill="#fff" style="fill: var(--color45, #fff)" d="M19.172 29.833c-0.207 0-0.376-0.168-0.376-0.376v-4.342c0-0.207 0.168-0.376 0.376-0.376s0.376 0.168 0.376 0.376v4.342c0 0.208-0.168 0.376-0.376 0.376z"></path>
<path fill="#fff" style="fill: var(--color45, #fff)" d="M9.204 14.394c-0.156 0-0.282-0.126-0.282-0.282v-2.11c0-0.156 0.126-0.282 0.282-0.282s0.282 0.126 0.282 0.282v2.11c0 0.156-0.126 0.282-0.282 0.282z"></path>
<path fill="#fff" style="fill: var(--color45, #fff)" d="M23.507 12.086c0 0.569-0.461 1.030-1.030 1.030v-2.047c0.569 0 1.030 0.461 1.030 1.030z"></path>
<path fill="#fff" style="fill: var(--color45, #fff)" d="M22.762 14.551c-0.156 0-0.282-0.126-0.282-0.282v-2.11c0-0.156 0.126-0.282 0.282-0.282s0.282 0.126 0.282 0.282v2.11c0 0.156-0.126 0.282-0.282 0.282z"></path>
</symbol>
<symbol id="icon-boy4" viewBox="0 0 32 32">
<path fill="#88ce65" style="fill: var(--color49, #88ce65)" d="M29.313 24.258c1.273-2.233 2-4.817 2-7.571 0-8.457-6.856-15.313-15.313-15.313s-15.313 6.856-15.313 15.313c0 2.754 0.728 5.338 2 7.571z"></path>
<path fill="#73c3f9" style="fill: var(--color50, #73c3f9)" d="M14.405 31.918c0.524 0.054 1.056 0.082 1.595 0.082 0.545 0 1.083-0.029 1.614-0.085v-8.353h-3.208v8.355z"></path>
<path fill="#49b1f7" style="fill: var(--color51, #49b1f7)" d="M17.614 23.563h-3.208v1.93c0.508 0.168 1.045 0.258 1.595 0.258 0.556 0 1.1-0.092 1.613-0.264v-1.923z"></path>
<path fill="#ffaa7b" style="fill: var(--color52, #ffaa7b)" d="M19.551 22.146l1.511-2.334c-0.313-0.097-0.632-0.183-0.958-0.259-0.634-0.634-0.795-1.837-0.824-2.679-0.331 0.386-0.679 0.708-1.011 0.966-0.647 0.502-1.445 0.775-2.268 0.775s-1.621-0.273-2.268-0.775c-0.332-0.258-0.68-0.581-1.011-0.966-0.029 0.842-0.19 2.045-0.824 2.679-0.327 0.075-0.646 0.162-0.96 0.259l1.511 2.333c0.78 1.204 2.116 1.931 3.551 1.931s2.771-0.727 3.551-1.931z"></path>
<path fill="#fc9460" style="fill: var(--color53, #fc9460)" d="M13.734 17.841c-0.332-0.258-0.68-0.581-1.011-0.966-0.029 0.842-0.19 2.045-0.824 2.679-0.327 0.075-0.646 0.162-0.96 0.259l1.047 1.617c0.737 0.332 1.526 0.502 2.198 0.226 1.451-0.595 1.75-2.297 1.81-3.040-0.82-0.002-1.615-0.274-2.26-0.775z"></path>
<path fill="#6c5475" style="fill: var(--color54, #6c5475)" d="M13.14 20.667c-0.069 0.018-0.14 0.041-0.213 0.068-0.51 0.194-1.194 0.684-1.579 1.917-0.372 0.006-2.073 0.096-3.184 1.19-0.632 0.622-0.952 1.458-0.952 2.483v2.902c2.15 1.51 4.706 2.48 7.472 2.716v-10.49z"></path>
<path fill="#56415e" style="fill: var(--color28, #56415e)" d="M11.267 19.715c-5.855 1.909-7.525 2.251-8.23 3.689-0.125 0.255-0.242 0.543-0.35 0.855 1.143 2.006 2.726 3.728 4.618 5.035 0-0.795 0-1.783 0-2.967 0-3.643 4.112-3.579 4.112-3.579 0.428-1.441 1.255-1.887 1.851-2.013z"></path>
<path fill="#6c5475" style="fill: var(--color54, #6c5475)" d="M29.313 24.258c-0.108-0.312-0.225-0.599-0.35-0.855-0.705-1.438-2.375-1.779-8.23-3.689l-2.015 1.025v11.020c4.541-0.814 8.388-3.63 10.595-7.501z"></path>
<path fill="#56415e" style="fill: var(--color28, #56415e)" d="M21.965 9.88c0.407-1.658 0.738-4.142-0.14-6.208-1.7-3.997-6.325-3.75-7.551-3.609-0.129 0.015-0.193 0.162-0.12 0.268 0.735 1.073-2.144 0.101-3.708 3.383-0.992 2.080-0.742 4.529-0.38 6.167h11.9z"></path>
<path fill="#45304c" style="fill: var(--color29, #45304c)" d="M15.933 4.403s-0.461-1.060 0.706-1.935c1.165-0.874-0.572-2.444-0.576-2.448-0.782-0.050-1.431 0.001-1.789 0.042-0.129 0.015-0.193 0.162-0.12 0.268 0.735 1.073-2.144 0.101-3.708 3.383-0.992 2.080-0.742 4.529-0.38 6.167h2.72l0.864-0.343z"></path>
<path fill="#ffaa7b" style="fill: var(--color52, #ffaa7b)" d="M22.204 9.67c-0.256-0.235-0.83-0.116-1.051 0.028 0.048 0.301 0.051 0.61 0.009 0.914l-0.261 1.898c0 0.153-0.005 0.303-0.014 0.451 0.636 0.192 1.014-0.379 1.067-0.77 0.023-0.169 0.060-0.335 0.112-0.497 0.169-0.528 0.779-1.435 0.136-2.024z"></path>
<path fill="#fc9460" style="fill: var(--color53, #fc9460)" d="M9.796 9.67c0.256-0.235 0.83-0.116 1.051 0.028-0.048 0.301-0.051 0.61-0.009 0.914l0.261 1.898c0 0.153 0.005 0.303 0.014 0.451-0.636 0.192-1.014-0.379-1.067-0.77-0.023-0.169-0.060-0.335-0.112-0.497-0.169-0.528-0.779-1.435-0.136-2.024z"></path>
<path fill="#ffc7ab" style="fill: var(--color55, #ffc7ab)" d="M20.833 8.657c-0.289-0.453-0.193-0.823-0.188-1.256 0 0 0.244-1.995-2.213-2.703-0.711-0.205-1.715-0.328-2.743-0.288-0.716 0.505-1.187 1.245-1.187 2.294 0 0.482 0.104 0.859-0.192 1.348-0.319 0.527-0.505 1.288-0.399 2.096l0.266 2.037c0 2.928 1.484 4.919 2.747 5.951 0.18 0.147 0.371 0.274 0.571 0.383 0.275-0.121 0.535-0.275 0.774-0.461 1.239-0.962 2.697-2.818 2.697-5.547l0.261-1.898c0.103-0.748-0.076-1.458-0.392-1.955z"></path>
<path fill="#ffaa7b" style="fill: var(--color52, #ffaa7b)" d="M16.935 18.017c-1.239-1.014-2.697-2.967-2.697-5.842l-0.261-2c-0.104-0.794 0.079-1.54 0.392-2.058 0.29-0.48 0.188-0.85 0.188-1.323 0-1.13 0.556-1.896 1.375-2.39-2.184 0.030-4.577 0.77-4.577 2.998 0 0.449 0.102 0.801-0.188 1.256-0.313 0.491-0.495 1.2-0.392 1.954l0.261 1.899c0 2.73 1.457 4.585 2.697 5.547 0.647 0.502 1.445 0.775 2.268 0.775 0.566 0 1.12-0.129 1.621-0.373-0.242-0.12-0.473-0.268-0.687-0.443z"></path>
<path fill="#876d93" style="fill: var(--color56, #876d93)" d="M17.316 31.943c0.576-0.049 1.143-0.13 1.699-0.241v-10.995l-1.699 0.745z"></path>
<path fill="#a98bbc" style="fill: var(--color57, #a98bbc)" d="M21.476 19.553c-0.53-0.578-1.15-1.066-1.838-1.446-0.072-0.040-0.161 0.002-0.178 0.082-0.101 0.494-0.52 1.992-2.015 2.982-0.309 0.205-0.366 0.635-0.122 0.914l1.503 1.721c0.361 0.416 1.027 0.341 1.288-0.144 0.441-0.821 1.056-2.071 1.511-3.415 0.081-0.241 0.024-0.507-0.148-0.694z"></path>
<path fill="#876d93" style="fill: var(--color56, #876d93)" d="M14.555 21.171c-0.268-0.177-0.5-0.371-0.703-0.572-0.182-0.015-0.53-0.014-0.925 0.137-0.506 0.193-1.182 0.677-1.569 1.887 0.188 0.391 0.37 0.744 0.529 1.039 0.261 0.486 0.927 0.561 1.288 0.144l1.503-1.721c0.244-0.279 0.187-0.71-0.122-0.914z"></path>
<path fill="#6c5475" style="fill: var(--color54, #6c5475)" d="M13.966 20.708c-1.021-0.944-1.339-2.097-1.426-2.519-0.016-0.081-0.106-0.122-0.178-0.082-0.688 0.38-1.308 0.868-1.838 1.446-0.172 0.187-0.23 0.453-0.148 0.694 0.308 0.911 0.69 1.779 1.042 2.499 0.717-2.41 2.547-2.038 2.548-2.038z"></path>
<path fill="#b4d667" style="fill: var(--color58, #b4d667)" d="M25.881 4.991c-0.712 0.915-1.451 2.253-1.451 3.866 0 3.112-3.875 8.233 0 9.235 3.186 0.824 4.945 1.191 6.16 3.254 0.469-1.469 0.722-3.034 0.722-4.658-0-4.691-2.11-8.888-5.431-11.697z"></path>
<path fill="#b4d667" style="fill: var(--color58, #b4d667)" d="M6.119 4.991c0.712 0.915 1.451 2.253 1.451 3.866 0 3.112 3.875 8.233 0 9.235-3.186 0.824-4.945 1.191-6.16 3.254-0.469-1.469-0.722-3.034-0.722-4.658 0-4.691 2.11-8.888 5.431-11.697z"></path>
<path fill="#56415e" style="fill: var(--color28, #56415e)" d="M27.351 26.964c-0.303-1.253-1.076-1.976-1.7-2.371-0.391-0.247-0.9 0.031-0.9 0.493v4.168c0.951-0.664 1.824-1.433 2.601-2.29z"></path>
</symbol>
<symbol id="icon-boy2" viewBox="0 0 32 32">
<path fill="#ff4155" style="fill: var(--color59, #ff4155)" d="M31.313 16.688c0 8.457-6.856 15.313-15.313 15.313s-15.313-6.856-15.313-15.313c0-8.457 6.856-15.313 15.313-15.313s15.313 6.856 15.313 15.313z"></path>
<path fill="#e80054" style="fill: var(--color60, #e80054)" d="M28.5 17.625c0 6.904-5.596 12.5-12.5 12.5s-12.5-5.596-12.5-12.5c0-6.904 5.596-12.5 12.5-12.5s12.5 5.596 12.5 12.5z"></path>
<path fill="#fff" style="fill: var(--color45, #fff)" d="M8.268 4.883c-0.509-0.304-0.935-0.729-1.238-1.238-0.085-0.143-0.238-0.232-0.405-0.232s-0.319 0.089-0.405 0.232c-0.304 0.509-0.729 0.935-1.238 1.238-0.143 0.085-0.232 0.238-0.232 0.405s0.089 0.319 0.232 0.405c0.509 0.304 0.935 0.729 1.238 1.238 0.085 0.143 0.238 0.232 0.405 0.232s0.319-0.089 0.405-0.232c0.304-0.509 0.729-0.935 1.238-1.238 0.143-0.085 0.232-0.238 0.232-0.405s-0.089-0.319-0.232-0.405z"></path>
<path fill="#e9efff" style="fill: var(--color61, #e9efff)" d="M6.388 5.693c-0.143-0.085-0.232-0.238-0.232-0.405s0.089-0.319 0.232-0.405c0.36-0.214 0.677-0.49 0.94-0.813-0.109-0.134-0.209-0.276-0.298-0.426-0.085-0.143-0.238-0.232-0.405-0.232s-0.319 0.089-0.405 0.232c-0.304 0.509-0.729 0.935-1.238 1.238-0.143 0.085-0.232 0.238-0.232 0.405s0.089 0.319 0.232 0.405c0.509 0.304 0.935 0.729 1.238 1.238 0.085 0.143 0.238 0.232 0.405 0.232s0.319-0.089 0.405-0.232c0.089-0.149 0.189-0.292 0.298-0.426-0.263-0.322-0.58-0.598-0.94-0.812z"></path>
<path fill="#fff" style="fill: var(--color45, #fff)" d="M25.575 13.919c-0.509-0.304-0.935-0.729-1.238-1.238-0.085-0.143-0.238-0.232-0.405-0.232s-0.32 0.089-0.405 0.232c-0.304 0.509-0.729 0.935-1.238 1.238-0.143 0.085-0.232 0.238-0.232 0.405s0.089 0.319 0.232 0.405c0.509 0.304 0.935 0.729 1.238 1.238 0.085 0.143 0.238 0.232 0.405 0.232s0.32-0.089 0.405-0.232c0.304-0.509 0.729-0.935 1.238-1.238 0.143-0.085 0.232-0.238 0.232-0.405s-0.089-0.319-0.232-0.405z"></path>
<path fill="#e9efff" style="fill: var(--color61, #e9efff)" d="M23.695 14.728c-0.143-0.085-0.232-0.238-0.232-0.405s0.089-0.319 0.232-0.405c0.36-0.214 0.677-0.49 0.94-0.813-0.109-0.134-0.209-0.276-0.298-0.426-0.085-0.143-0.238-0.232-0.405-0.232s-0.32 0.089-0.405 0.232c-0.304 0.509-0.729 0.935-1.238 1.238-0.143 0.085-0.232 0.238-0.232 0.405s0.089 0.319 0.232 0.405c0.509 0.304 0.935 0.729 1.238 1.238 0.085 0.143 0.238 0.232 0.405 0.232s0.32-0.089 0.405-0.232c0.089-0.149 0.189-0.292 0.298-0.426-0.263-0.322-0.58-0.598-0.94-0.812z"></path>
<path fill="#fff" style="fill: var(--color45, #fff)" d="M10.094 16.952c-0.509-0.304-0.935-0.729-1.238-1.238-0.085-0.143-0.238-0.232-0.405-0.232s-0.319 0.089-0.405 0.232c-0.304 0.509-0.729 0.935-1.238 1.238-0.143 0.085-0.232 0.238-0.232 0.405s0.089 0.32 0.232 0.405c0.509 0.304 0.935 0.729 1.238 1.238 0.085 0.143 0.238 0.232 0.405 0.232s0.319-0.089 0.405-0.232c0.304-0.509 0.729-0.935 1.238-1.238 0.143-0.085 0.232-0.238 0.232-0.405s-0.089-0.32-0.232-0.405z"></path>
<path fill="#e9efff" style="fill: var(--color61, #e9efff)" d="M8.214 17.761c-0.143-0.085-0.232-0.238-0.232-0.405s0.089-0.32 0.232-0.405c0.36-0.214 0.677-0.49 0.94-0.813-0.109-0.134-0.209-0.276-0.298-0.426-0.085-0.143-0.238-0.232-0.405-0.232s-0.319 0.089-0.405 0.232c-0.304 0.509-0.729 0.935-1.238 1.238-0.143 0.085-0.232 0.238-0.232 0.405s0.089 0.32 0.232 0.405c0.509 0.304 0.935 0.729 1.238 1.238 0.085 0.143 0.238 0.232 0.405 0.232s0.319-0.089 0.405-0.232c0.089-0.149 0.189-0.292 0.298-0.426-0.263-0.323-0.58-0.598-0.94-0.812z"></path>
<path fill="#3c5082" style="fill: var(--color62, #3c5082)" d="M27.014 22.202h-0.014c0.003-0.002 0.006-0.005 0.008-0.007-0.054-0.064-0.108-0.121-0.161-0.167-1.463-1.292-7.724-2.34-7.886-2.366h-5.923c-0.162 0.027-6.422 1.074-7.886 2.366-0.055 0.048-0.11 0.107-0.167 0.174-0.483 0.577-1.029 1.825-1.545 3.244 2.044 2.925 5.082 5.104 8.625 6.043l0-0 3.933-0.711 3.935 0.711s0 0 0 0c3.543-0.94 6.582-3.118 8.625-6.043-0.516-1.419-1.062-2.668-1.545-3.244z"></path>
<path fill="#4b6496" style="fill: var(--color63, #4b6496)" d="M23.523 25.003c-0.786-3.934-3.359-8.41-7.523-8.41s-6.737 4.476-7.523 8.41c-0.139 0.698 0.288 1.384 0.977 1.567l0.122 0.032c0.417 0.11 0.755 0.413 0.911 0.815l1.579 4.072c0.579 0.154 1.172 0.273 1.776 0.358l2.156-1.069 2.139 1.073c0.611-0.085 1.211-0.206 1.796-0.362l1.579-4.072c0.156-0.402 0.495-0.705 0.911-0.815l0.122-0.032c0.688-0.182 1.116-0.869 0.977-1.567z"></path>
<path fill="#e9efff" style="fill: var(--color61, #e9efff)" d="M13.038 19.661l0.809 7.175v5.015c0.699 0.098 1.413 0.148 2.139 0.148 0.005 0 0.009-0 0.014-0s0.009 0 0.014 0c0.726 0 1.44-0.051 2.139-0.148v-5.015l0.809-7.175z"></path>
<path fill="#fcad6d" style="fill: var(--color64, #fcad6d)" d="M18.962 13.796h-5.923v5.865s1.189 1.256 2.948 1.256 2.975-1.256 2.975-1.256z"></path>
<path fill="#fd995b" style="fill: var(--color65, #fd995b)" d="M13.038 13.796v5.865c5.92 0 5.923-3.337 5.923-3.337v-2.527h-5.923z"></path>
<path fill="#bec8f7" style="fill: var(--color35, #bec8f7)" d="M13.847 27.231v4.62c0.699 0.098 1.413 0.148 2.139 0.148 0.005 0 0.009-0 0.014-0s0.009 0 0.014 0c0.726 0 1.44-0.051 2.139-0.148v-1.596c-1.705-0.242-3.525-1.88-4.306-3.025z"></path>
<path fill="#2d3c6b" style="fill: var(--color66, #2d3c6b)" d="M5.692 26.678v1.333c0.447 0.407 0.919 0.789 1.412 1.141l-0.752-2.569c-0.109-0.374-0.66-0.295-0.66 0.095z"></path>
<path fill="#2d3c6b" style="fill: var(--color66, #2d3c6b)" d="M26.308 26.678v1.333c-0.447 0.407-0.919 0.789-1.412 1.141l0.752-2.569c0.109-0.374 0.66-0.295 0.66 0.095z"></path>
<path fill="#5e5057" style="fill: var(--color67, #5e5057)" d="M21.117 2.276c-1.236-1.395-2.976-2.276-5.117-2.276s-3.062 0.352-3.923 0.75-0.919 2.13-0.919 2.13c-1.073 1.17-1.729 2.729-1.729 4.442v1.88h13.143v-1.88c0-1.438-0.218-3.65-1.455-5.045z"></path>
<path fill="#4a3940" style="fill: var(--color68, #4a3940)" d="M9.429 9.201h3.063v-3.983c-0.739-0.257-1.324-1.084-1.334-2.339-1.073 1.17-1.729 2.729-1.729 4.442z"></path>
<path fill="#fcad6d" style="fill: var(--color64, #fcad6d)" d="M20.691 9.973s0.649-1.58 1.806-1.213-0.028 3.792-2.286 4.007z"></path>
<path fill="#fd995b" style="fill: var(--color65, #fd995b)" d="M11.309 9.973s-0.649-1.58-1.806-1.213 0.028 3.792 2.286 4.007z"></path>
<path fill="#f9ba8f" style="fill: var(--color69, #f9ba8f)" d="M12.177 5.306c-0.645 0.215-1.121 0.767-1.277 1.429-0.159 0.675-0.375 1.72-0.375 2.436 0 4.032 2.451 8.76 5.475 8.76s5.475-4.728 5.475-8.76c0-0.105-0.002-0.13-0.005-0.233-5.088-0-7.012-4.392-9.292-3.632z"></path>
<path fill="#fcad6d" style="fill: var(--color64, #fcad6d)" d="M17.25 17.66c-2.421-1.060-4.225-5.030-4.225-8.488 0-1.373 0.285-2.614 0.78-3.655-0.554-0.279-1.081-0.393-1.628-0.211-0.645 0.215-1.121 0.767-1.277 1.429-0.159 0.675-0.375 1.72-0.375 2.436 0 4.032 2.451 8.76 5.475 8.76 0.43 0 0.849-0.096 1.25-0.272z"></path>
<path fill="#fcad6d" style="fill: var(--color64, #fcad6d)" d="M15.126 12.028l0.527-0.84c0.161-0.256 0.533-0.256 0.694 0l0.527 0.84c0.171 0.273-0.025 0.627-0.347 0.627h-1.054c-0.322-0-0.518-0.355-0.347-0.627z"></path>
<path fill="#4a3940" style="fill: var(--color68, #4a3940)" d="M14.711 15.054h2.577c0.257-0.226 0.454-0.519 0.563-0.852 0.099-0.301-0.129-0.61-0.446-0.61h-2.812c-0.317 0-0.545 0.309-0.446 0.61 0.11 0.333 0.306 0.626 0.563 0.852z"></path>
<path fill="#ff4155" style="fill: var(--color59, #ff4155)" d="M17.288 15.054c-0.343 0.303-0.795 0.487-1.288 0.487s-0.945-0.184-1.288-0.487c0.344-0.303 0.795-0.487 1.288-0.487s0.945 0.184 1.288 0.487z"></path>
<path fill="#4a3940" style="fill: var(--color68, #4a3940)" d="M19.437 10.13c0.003-0.218-0.086-0.438-0.265-0.596-0.292-0.258-0.74-0.258-1.032 0-0.179 0.158-0.268 0.378-0.265 0.596 0.003 0.284 0.352 0.42 0.552 0.219 0.126-0.126 0.331-0.126 0.458 0 0.201 0.201 0.549 0.065 0.552-0.219z"></path>
<path fill="#4a3940" style="fill: var(--color68, #4a3940)" d="M12.563 10.13c-0.003-0.218 0.086-0.438 0.265-0.596 0.292-0.258 0.74-0.258 1.032 0 0.179 0.158 0.268 0.378 0.265 0.596-0.003 0.284-0.352 0.42-0.552 0.219-0.126-0.126-0.331-0.126-0.458 0-0.201 0.201-0.549 0.065-0.552-0.219z"></path>
<path fill="#4a3940" style="fill: var(--color68, #4a3940)" d="M13.969 8.685h-1.25c-0.259 0-0.469-0.21-0.469-0.469s0.21-0.469 0.469-0.469h1.25c0.259 0 0.469 0.21 0.469 0.469s-0.21 0.469-0.469 0.469z"></path>
<path fill="#4a3940" style="fill: var(--color68, #4a3940)" d="M19.281 8.685h-1.25c-0.259 0-0.469-0.21-0.469-0.469s0.21-0.469 0.469-0.469h1.25c0.259 0 0.469 0.21 0.469 0.469s-0.21 0.469-0.469 0.469z"></path>
</symbol>
<symbol id="icon-boy5" viewBox="0 0 32 32">
<path fill="#f7f9fa" style="fill: var(--color70, #f7f9fa)" d="M25.352 31.531h-18.704v-9.090l7.068-1.299h4.569l7.068 1.299z"></path>
<path fill="#e9edf1" style="fill: var(--color71, #e9edf1)" d="M18.284 21.142h-1.371l7.068 1.299v9.090h1.371v-9.090z"></path>
<path fill="#a2aee6" style="fill: var(--color72, #a2aee6)" d="M6.648 22.441l-1.622 0.518c-1.392 0.444-2.406 1.645-2.613 3.091l-0.782 5.481h5.016z"></path>
<path fill="#8795de" style="fill: var(--color73, #8795de)" d="M5.277 22.879v8.653h1.371v-9.090z"></path>
<path fill="#a2aee6" style="fill: var(--color72, #a2aee6)" d="M25.352 22.441l1.622 0.518c1.392 0.444 2.407 1.645 2.613 3.091l0.782 5.481h-5.016v-9.090z"></path>
<path fill="#8795de" style="fill: var(--color73, #8795de)" d="M29.587 26.050c-0.206-1.446-1.221-2.647-2.613-3.091l-1.622-0.518v0.438l0.251 0.080c1.392 0.444 2.407 1.645 2.613 3.091l0.782 5.481h1.371z"></path>
<path fill="#5d5360" style="fill: var(--color74, #5d5360)" d="M24.304 10.227h-16.608v-5.93c0-2.115 1.714-3.829 3.829-3.829h8.951c2.114 0 3.829 1.714 3.829 3.829v5.93z"></path>
<path fill="#4b3f4e" style="fill: var(--color75, #4b3f4e)" d="M20.476 0.469h-1.121c2.114 0 3.829 1.714 3.829 3.829v5.93h1.121v-5.93c0-2.115-1.714-3.829-3.829-3.829z"></path>
<path fill="#fed2a4" style="fill: var(--color76, #fed2a4)" d="M22.422 6.513v7.462c0 1.801-1.46 3.261-3.261 3.261h-6.322c-1.801 0-3.261-1.46-3.261-3.261v-7.462c0-0.643 0.521-1.165 1.165-1.165h1.43c0.679 0.944 1.77 1.504 2.933 1.504h1.788c1.163 0 2.254-0.56 2.933-1.504h1.43c0.643 0 1.165 0.521 1.165 1.165z"></path>
<path fill="#ffbd86" style="fill: var(--color26, #ffbd86)" d="M21.257 5.348h-1.371c0.643 0 1.165 0.521 1.165 1.165v7.462c0 1.801-1.46 3.261-3.261 3.261h1.371c1.801 0 3.261-1.46 3.261-3.261v-7.462c0-0.643-0.521-1.165-1.165-1.165z"></path>
<path fill="#ffbd86" style="fill: var(--color26, #ffbd86)" d="M13.735 6.852h1.371c-1.163 0-2.254-0.56-2.933-1.504h-1.371c0.679 0.944 1.77 1.504 2.933 1.504z"></path>
<path fill="#fed2a4" style="fill: var(--color76, #fed2a4)" d="M9.578 13.106h-1.487c-0.725 0-1.313-0.588-1.313-1.313v-1.252c0-0.725 0.588-1.313 1.313-1.313h1.487z"></path>
<path fill="#ffbd86" style="fill: var(--color26, #ffbd86)" d="M8.206 9.227h1.371v3.879h-1.371z"></path>
<path fill="#fed2a4" style="fill: var(--color76, #fed2a4)" d="M23.909 13.106h-1.487v-3.879h1.487c0.725 0 1.313 0.588 1.313 1.313v1.252c0 0.725-0.588 1.313-1.313 1.313z"></path>
<path fill="#ffbd86" style="fill: var(--color26, #ffbd86)" d="M23.909 9.227h-1.371c0.725 0 1.313 0.588 1.313 1.313v1.252c0 0.725-0.588 1.313-1.313 1.313h1.371c0.725 0 1.313-0.588 1.313-1.313v-1.252c0-0.725-0.588-1.313-1.313-1.313z"></path>
<path fill="#fed2a4" style="fill: var(--color76, #fed2a4)" d="M13.716 17.235h4.569v3.906l-2.284 1.589-2.284-1.589z"></path>
<path fill="#ffbd86" style="fill: var(--color26, #ffbd86)" d="M16.913 17.235v3.906l-1.599 1.112 0.686 0.477 2.284-1.589v-3.906z"></path>
<path fill="#a6e7f0" style="fill: var(--color77, #a6e7f0)" d="M16 22.731l1.297 1.295c0.3 0.3 0.794 0.272 1.059-0.059l1.958-2.452-2.030-0.373z"></path>
<path fill="#6bd9e7" style="fill: var(--color78, #6bd9e7)" d="M18.284 21.142l-0.287 0.199 0.946 0.174-1.438 1.923c-0.136 0.17-0.331 0.259-0.53 0.267l0.322 0.322c0.3 0.3 0.794 0.272 1.059-0.059l1.958-2.452z"></path>
<path fill="#a6e7f0" style="fill: var(--color77, #a6e7f0)" d="M16 22.731l-1.297 1.295c-0.3 0.3-0.794 0.272-1.059-0.059l-1.958-2.452 2.030-0.373z"></path>
<path fill="#6bd9e7" style="fill: var(--color78, #6bd9e7)" d="M13.716 21.142l-1.085 0.199 1.998 1.389-0.674 0.689c-0.161 0.161-0.379 0.227-0.586 0.202l0.276 0.345c0.265 0.331 0.759 0.359 1.059 0.059l1.297-1.295z"></path>
<path fill="#000" style="fill: var(--color79, #000)" d="M30.832 31.465l-0.782-5.481c-0.23-1.613-1.382-2.976-2.934-3.472-0.050-0.012-1.607-0.52-1.68-0.532l-6.684-1.229v-1.316c0-0.259-0.21-0.469-0.469-0.469s-0.469 0.21-0.469 0.469v1.461l-1.816 1.263-1.816-1.263v-3.193h4.977c2.057 0 3.73-1.673 3.73-3.73v-0.399h1.019c0.983 0 1.782-0.8 1.782-1.782v-1.252c0-0.669-0.371-1.254-0.918-1.558v-2.496c0-0.259-0.21-0.469-0.469-0.469s-0.469 0.21-0.469 0.469v2.272h-0.945v-2.246c0-0.901-0.733-1.633-1.633-1.633h-1.43c-0.151 0-0.293 0.073-0.381 0.195-0.589 0.819-1.543 1.309-2.552 1.309h-1.788c-1.009 0-1.963-0.489-2.552-1.309-0.088-0.122-0.23-0.195-0.381-0.195h-1.43c-0.901 0-1.633 0.733-1.633 1.633v2.246h-0.945v-4.461c0-1.853 1.507-3.36 3.36-3.36h8.951c1.853 0 3.36 1.507 3.36 3.36 0 0.259 0.21 0.469 0.469 0.469s0.469-0.21 0.469-0.469c0-2.37-1.928-4.298-4.297-4.298h-8.951c-2.37 0-4.298 1.928-4.298 4.298v4.685c-0.547 0.305-0.918 0.889-0.918 1.558v1.252c0 0.983 0.8 1.782 1.782 1.782h1.019v0.399c0 2.057 1.673 3.73 3.73 3.73h0.408v3.047l-6.684 1.229c-0.048 0.005-1.604 0.512-1.68 0.532-1.552 0.496-2.704 1.858-2.934 3.472l-0.782 5.481c-0.037 0.256 0.142 0.494 0.398 0.53 0.022 0.003 0.045 0.005 0.067 0.005 0.23 0 0.43-0.169 0.464-0.403l0.781-5.481c0.18-1.26 1.079-2.324 2.291-2.711l1.011-0.323v8.449c0 0.259 0.21 0.469 0.469 0.469s0.469-0.21 0.469-0.469v-8.7l4.377-0.805 1.783 2.232c0.165 0.207 0.537 0.447 0.922 0.444 0.312 0 0.613-0.124 0.835-0.345l0.497-0.496v3.471c0 0.259 0.21 0.469 0.469 0.469s0.469-0.21 0.469-0.469v-3.471l0.497 0.496c0.433 0.444 1.296 0.48 1.757-0.099l1.783-2.233 4.377 0.805v8.7c0 0.259 0.21 0.469 0.469 0.469s0.469-0.21 0.469-0.469v-8.449l1.011 0.323c1.212 0.387 2.112 1.451 2.291 2.711l0.782 5.481c0.033 0.234 0.234 0.403 0.463 0.403 0.022 0 0.044-0.002 0.067-0.005 0.256-0.037 0.434-0.274 0.398-0.53zM22.891 9.696h1.018c0.466 0 0.845 0.379 0.845 0.845v1.252c0 0.466-0.379 0.845-0.845 0.845h-1.018zM9.109 12.637h-1.018c-0.466 0-0.845-0.379-0.845-0.845v-1.252c0-0.466 0.379-0.845 0.845-0.845h1.018zM10.047 13.974v-7.462c0-0.384 0.312-0.696 0.696-0.696h1.199c0.771 0.946 1.936 1.504 3.164 1.504h1.788c1.228 0 2.393-0.558 3.164-1.504h1.199c0.384 0 0.696 0.312 0.696 0.696v7.462c0 1.54-1.253 2.792-2.792 2.792h-6.322c-1.54 0-2.792-1.253-2.792-2.792zM14.372 23.694c-0.067 0.067-0.145 0.073-0.185 0.071s-0.117-0.017-0.176-0.091l-1.47-1.84c0.137-0.025 0.996-0.183 1.068-0.196l1.664 1.157zM17.99 23.674c-0.059 0.074-0.136 0.089-0.176 0.091s-0.119-0.004-0.185-0.071l-0.9-0.899 1.664-1.157c0.084 0.015 0.982 0.18 1.068 0.196z"></path>
<path fill="#000" style="fill: var(--color79, #000)" d="M22.079 28.929h-1.764c-0.259 0-0.469 0.21-0.469 0.469s0.21 0.469 0.469 0.469h1.764c0.259 0 0.469-0.21 0.469-0.469s-0.21-0.469-0.469-0.469z"></path>
<path fill="#000" style="fill: var(--color79, #000)" d="M16 12.527h0.431c0.259 0 0.469-0.21 0.469-0.469 0-0.246-0.19-0.448-0.431-0.467v-0.746c0-0.259-0.21-0.469-0.469-0.469s-0.469 0.21-0.469 0.469v1.213c0 0.259 0.21 0.469 0.469 0.469z"></path>
<path fill="#000" style="fill: var(--color79, #000)" d="M12.285 9.487c-0.259 0-0.469 0.21-0.469 0.469v0.828c0 0.259 0.21 0.469 0.469 0.469s0.469-0.21 0.469-0.469v-0.828c0-0.259-0.21-0.469-0.469-0.469z"></path>
<path fill="#000" style="fill: var(--color79, #000)" d="M19.715 11.252c0.259 0 0.469-0.21 0.469-0.469v-0.828c0-0.259-0.21-0.469-0.469-0.469s-0.469 0.21-0.469 0.469v0.828c0 0.259 0.21 0.469 0.469 0.469z"></path>
<path fill="#000" style="fill: var(--color79, #000)" d="M16 15.137c0.965 0 1.841-0.493 2.343-1.319 0.134-0.221 0.064-0.51-0.157-0.644s-0.509-0.064-0.644 0.158c-0.33 0.544-0.906 0.868-1.541 0.868s-1.211-0.325-1.541-0.868c-0.134-0.221-0.423-0.292-0.644-0.158s-0.292 0.423-0.158 0.644c0.502 0.826 1.377 1.319 2.343 1.319z"></path>
</symbol>
</defs>
</svg>
